<?xml version="1.0" encoding="UTF-8" standalone="no"?>
<svg xmlns="http://www.w3.org/2000/svg" version="1.1" width="1152" height="1152">
	<defs>
		<linearGradient id="shuffle-gradient" x1="92.048187" y1="646.73419" x2="829.70874" y2="311.70236">
			<stop stop-color="#266BA5" offset="0"/>
			<stop stop-color="#19A4DC" offset="1"/>
		</linearGradient>
	</defs>
	<rect fill="black" x="0" y="0" width="1152" height="1152"/>
	<path fill="url(#shuffle-gradient)" d="m 595.51321,101.7078 25.10305,60.79397 C 503.70807,207.56611 399.67232,291.25421 353.61619,375.62702 L 206.23843,645.61697 C 169.79149,712.38608 125.99486,758.26026 0,809.16244 v 84.12932 C 160.64553,829.89818 268.49477,747.73563 310.98388,670.06544 l 139.31517,-254.6687 c 46.13282,-84.33086 83.12019,-135.88314 200.02832,-180.9475 l 25.34345,61.3717 173.83234,-185.38991 z M 123.45253,409.95835 C 86.631011,410.01264 45.164964,415.03276 0,425.25936 v 79.66063 c 59.616745,-12.6705 103.28241,-7.0893 151.05255,7.05656 l 75.85659,22.46264 50.83031,-93.11922 -69.71116,-20.57374 c -24.32797,-7.18003 -52.71902,-10.83498 -84.57576,-10.78788 z m 607.06272,18.67475 25.34345,61.37374 c -114.64137,50.5536 -177.22513,40.11861 -269.41822,12.90909 l -37.8687,-11.17576 -51.00402,93.23639 48.42018,14.33736 c 92.16832,27.29332 224.94046,13.19396 339.58186,-37.3596 l 25.10505,60.79396 173.83023,-185.39395 z"/>
	<path fill="#959595" d="m 842.08733,681.80274 h 139.69691 l -51.20853,287.99691 h -99.13975 l 29.90579,-169.19308 -66.77594,169.19308 h -74.15 l -8.19334,-175.3381 -30.72512,175.3381 H 582.35761 L 633.56615,681.80274 H 771.2147 l 6.55472,162.2287 z M 587.33761,769.0621 H 475.49818 l -5.73535,31.13481 h 105.69441 l -14.74807,83.57232 H 455.01476 l -15.15773,86.03042 H 340.7173 l 51.20854,-287.99691 h 210.97917 z"/>
</svg>
