<?xml version="1.0" encoding="UTF-8" standalone="no"?>
<svg xmlns="http://www.w3.org/2000/svg" version="1.1" width="1152" height="1152" viewBox="0 0 1152 1152">
	<path fill="white" d="m883.47 814.351c-38.172 0-69.119 30.945-69.119 69.119 0 38.174 30.947 69.121 69.119 69.121 38.174 0 69.121-30.947 69.121-69.121 0-38.174-30.947-69.119-69.121-69.119zM576.001 384C469.961 384 384 469.961 384 575.999 384 682.039 469.961 768 576.001 768 682.039 768 768 682.039 768 575.999 768 469.961 682.039 384 576.001 384ZM280.216 575.999c0-163.357 132.426-295.782 295.785-295.782 163.357 0 295.782 132.426 295.782 295.782 0 163.359-132.426 295.785-295.782 295.785-163.359 0-295.785-132.426-295.785-295.785zm58.3 572.535C277.207 1145.737 235.336 1136 198.697 1121.762 160.82 1107.042 128.698 1087.347 96.676 1055.325 64.654 1023.304 44.959 991.179 30.239 953.302 16.001 916.664 6.263 874.793 3.465 813.484.662 752.048 0 732.432 0 575.999 0 419.568.662 399.952 3.465 338.516 6.263 277.207 16.001 235.336 30.239 198.698 44.959 160.821 64.653 128.698 96.676 96.675 128.698 64.653 160.82 44.958 198.697 30.238 235.336 16 277.207 6.263 338.516 3.466 399.952.664 419.568 0 576.001 0c156.431 0 176.046.664 237.483 3.466 61.308 2.797 103.18 12.534 139.818 26.772 37.877 14.72 70 34.414 102.023 66.437 32.023 32.023 51.717 64.146 66.437 102.023 14.238 36.637 23.975 78.509 26.772 139.818 2.803 61.437 3.466 81.052 3.466 237.483 0 156.433-.664 176.049-3.466 237.485-2.797 61.308-12.534 103.18-26.772 139.818-14.72 37.877-34.415 70.002-66.437 102.023-32.023 32.022-64.146 51.717-102.023 66.437-36.638 14.238-78.509 23.975-139.818 26.772-61.437 2.803-81.052 3.466-237.483 3.466v0c0 0-176.049-.664-237.485-3.466zm470.237-103.676c56.159-2.562 86.658-11.944 106.955-19.832 26.886-10.449 46.074-22.931 66.229-43.086 20.157-20.157 32.639-39.345 43.088-66.231 7.888-20.297 17.271-50.795 19.832-106.955 2.77-60.737 3.359-78.955 3.359-232.755 0-153.797-.588-172.015-3.359-232.752-2.562-56.159-11.944-86.658-19.832-106.955-10.449-26.886-22.932-46.073-43.088-66.229-20.156-20.156-39.343-32.639-66.229-43.088-20.297-7.888-50.796-17.27-106.955-19.832-60.728-2.77-78.944-3.359-232.752-3.359-153.811 0-172.024.589-232.755 3.359-56.159 2.562-86.658 11.944-106.955 19.832-26.886 10.449-46.073 22.931-66.229 43.088-20.155 20.156-32.639 39.343-43.088 66.229-7.888 20.297-17.271 50.795-19.833 106.955-2.771 60.737-3.358 78.955-3.358 232.752 0 153.799.587 172.018 3.358 232.755 2.562 56.159 11.945 86.658 19.833 106.955 10.449 26.886 22.932 46.074 43.087 66.229 20.157 20.157 39.344 32.639 66.23 43.088 20.297 7.888 50.796 17.271 106.955 19.832 60.737 2.77 78.955 3.359 232.755 3.359 153.797 0 172.015-.588 232.752-3.359z"/>
</svg>
