<?xml version="1.0" encoding="UTF-8" standalone="no"?>
<svg xmlns="http://www.w3.org/2000/svg" version="1.1" width="1152" height="1152" viewBox="0 0 1152 1152">
   <path fill="white" d="m1034.449 371.784c0-10.142 0-20.283-.461-30.425 46.099-33.191 86.204-75.14 118.012-122.622-42.41 18.9-88.048 31.347-135.99 37.34 48.864-29.042 86.204-75.601 104.183-130.92-45.638 27.198-96.346 46.559-150.281 57.162-43.332-46.098-104.643-74.679-172.408-74.679-130.459 0-236.485 106.026-236.485 236.485 0 18.439 2.305 36.418 5.993 53.935C370.632 388.379 196.379 293.878 79.75 150.972 59.467 186.007 47.942 226.574 47.942 269.906c0 82.055 41.95 154.43 105.104 196.84-38.723-1.383-75.14-11.986-106.948-29.503v3.227c0 114.324 81.594 210.209 189.465 231.875-19.822 5.532-40.567 8.298-62.233 8.298-15.212 0-29.964-1.383-44.254-4.149 29.964 94.041 117.551 162.266 220.812 164.11C268.754 904.221 166.876 942.022 56.24 942.022 37.34 942.022 18.439 941.1 0 938.795 104.183 1005.177 228.648 1044.36 361.873 1044.36c434.708 0 672.576-360.49 672.576-672.576z"/>
</svg>
